<mxfile host="app.diagrams.net" modified="2024-07-18T06:54:45.312Z" agent="Mozilla/5.0 (Macintosh; Intel Mac OS X 10_15_7) AppleWebKit/537.36 (KHTML, like Gecko) Chrome/126.0.0.0 Safari/537.36" etag="2hSBlhtYdRYuzh9TXgRR" version="24.7.1" type="device">
  <diagram name="Page-1" id="xzWM6LuqtwI0afCQ_9PF">
    <mxGraphModel dx="1193" dy="1927" grid="1" gridSize="10" guides="1" tooltips="1" connect="1" arrows="1" fold="1" page="1" pageScale="1" pageWidth="827" pageHeight="1169" math="0" shadow="0">
      <root>
        <mxCell id="0" />
        <mxCell id="1" parent="0" />
        <mxCell id="ijq4nxJht9nwM7lDfUeJ-22" value="" style="rounded=0;whiteSpace=wrap;html=1;dashed=1;dashPattern=8 8;fillColor=none;" vertex="1" parent="1">
          <mxGeometry x="360" y="10" width="770" height="500" as="geometry" />
        </mxCell>
        <mxCell id="ijq4nxJht9nwM7lDfUeJ-2" value="&lt;span style=&quot;font-weight: normal;&quot;&gt;&lt;font style=&quot;font-size: 16px;&quot;&gt;User prompt&lt;/font&gt;&lt;/span&gt;" style="text;html=1;align=center;verticalAlign=middle;whiteSpace=wrap;rounded=0;fontStyle=1;fontSize=18;" vertex="1" parent="1">
          <mxGeometry x="400" y="60" width="160" height="20" as="geometry" />
        </mxCell>
        <mxCell id="ijq4nxJht9nwM7lDfUeJ-5" value="&lt;div&gt;&lt;b&gt;{&lt;/b&gt;&lt;/div&gt;&lt;div&gt;&lt;b&gt;&amp;nbsp; &amp;nbsp; &quot;messages&quot;: [{&quot;role&quot;: &quot;user&quot;, &quot;content&quot;: &quot;Hello Albert&quot;}],&lt;br&gt;&lt;br&gt;&lt;br&gt;&lt;br&gt;&lt;br&gt;&lt;br&gt;&lt;/b&gt;&lt;b&gt;&amp;nbsp; &amp;nbsp;&amp;nbsp;&lt;/b&gt;&lt;b&gt;&quot;user&quot;: &quot;me&quot;, &lt;br&gt;&lt;br&gt;&lt;br&gt;&lt;br&gt;&lt;br&gt;&lt;/b&gt;&lt;b&gt;&amp;nbsp; &amp;nbsp;&amp;nbsp;&lt;/b&gt;&lt;b&gt;&quot;tools&quot;&lt;span class=&quot;p&quot; style=&quot;background-color: initial; color: var(--jp-mirror-editor-punctuation-color); white-space: normal;&quot;&gt;:&lt;/span&gt;&lt;span style=&quot;background-color: initial; color: rgb(33, 33, 33); white-space: normal;&quot;&gt; &lt;/span&gt;&lt;span class=&quot;p&quot; style=&quot;background-color: initial; color: var(--jp-mirror-editor-punctuation-color); white-space: normal;&quot;&gt;[&lt;/span&gt;&lt;span style=&quot;background-color: initial; white-space: normal;&quot;&gt;{&lt;/span&gt;&lt;br&gt;&lt;/b&gt;&lt;b&gt;&amp;nbsp; &amp;nbsp;&amp;nbsp;&lt;/b&gt;&lt;b style=&quot;background-color: initial;&quot;&gt;&amp;nbsp; &amp;nbsp;&amp;nbsp;&lt;/b&gt;&lt;b style=&quot;background-color: initial;&quot;&gt;&quot;function&quot;&lt;span class=&quot;p&quot; style=&quot;background-color: initial; color: var(--jp-mirror-editor-punctuation-color);&quot;&gt;:&lt;/span&gt;&lt;span style=&quot;background-color: initial; color: rgb(33, 33, 33);&quot;&gt; &lt;/span&gt;&lt;span class=&quot;p&quot; style=&quot;background-color: initial; color: var(--jp-mirror-editor-punctuation-color);&quot;&gt;{&lt;/span&gt;&lt;/b&gt;&lt;/div&gt;&lt;div&gt;&lt;b&gt;&amp;nbsp; &amp;nbsp;&amp;nbsp;&lt;/b&gt;&lt;b style=&quot;background-color: initial;&quot;&gt;&amp;nbsp; &amp;nbsp;&amp;nbsp;&lt;/b&gt;&lt;b style=&quot;background-color: initial;&quot;&gt;&amp;nbsp; &amp;nbsp;&amp;nbsp;&lt;/b&gt;&lt;b style=&quot;background-color: initial;&quot;&gt;&quot;name&quot;&lt;span class=&quot;p&quot; style=&quot;background-color: initial; color: var(--jp-mirror-editor-punctuation-color);&quot;&gt;:&lt;/span&gt;&lt;span style=&quot;background-color: initial; color: rgb(33, 33, 33);&quot;&gt; &lt;/span&gt;&lt;span class=&quot;s2&quot; style=&quot;background-color: initial; color: var(--jp-mirror-editor-string-color);&quot;&gt;&quot;BaseRAG&quot;&lt;/span&gt;&lt;span class=&quot;p&quot; style=&quot;background-color: initial; color: var(--jp-mirror-editor-punctuation-color);&quot;&gt;,&lt;/span&gt;&lt;/b&gt;&lt;/div&gt;&lt;div&gt;&lt;b&gt;&amp;nbsp; &amp;nbsp;&amp;nbsp;&lt;/b&gt;&lt;b style=&quot;background-color: initial;&quot;&gt;&amp;nbsp; &amp;nbsp;&amp;nbsp;&lt;/b&gt;&lt;b style=&quot;background-color: initial;&quot;&gt;&amp;nbsp; &amp;nbsp;&amp;nbsp;&lt;/b&gt;&lt;b style=&quot;background-color: initial;&quot;&gt;&lt;span class=&quot;s2&quot; style=&quot;background-color: initial; color: var(--jp-mirror-editor-string-color);&quot;&gt;&quot;parameters&quot;&lt;/span&gt;&lt;span class=&quot;p&quot; style=&quot;background-color: initial; color: var(--jp-mirror-editor-punctuation-color);&quot;&gt;:&lt;/span&gt;&lt;span style=&quot;background-color: initial;&quot;&gt; &lt;/span&gt;&lt;span class=&quot;p&quot; style=&quot;background-color: initial; color: var(--jp-mirror-editor-punctuation-color);&quot;&gt;{&lt;/span&gt;&lt;/b&gt;&lt;/div&gt;&lt;div&gt;&lt;b&gt;&amp;nbsp; &amp;nbsp;&amp;nbsp;&lt;/b&gt;&lt;b style=&quot;background-color: initial;&quot;&gt;&amp;nbsp; &amp;nbsp;&amp;nbsp;&lt;/b&gt;&lt;b style=&quot;background-color: initial;&quot;&gt;&amp;nbsp; &amp;nbsp;&amp;nbsp;&lt;/b&gt;&lt;b style=&quot;background-color: initial;&quot;&gt;&amp;nbsp; &amp;nbsp;&amp;nbsp;&lt;/b&gt;&lt;b style=&quot;background-color: initial;&quot;&gt;&lt;span class=&quot;s2&quot; style=&quot;background-color: initial; color: var(--jp-mirror-editor-string-color);&quot;&gt;&quot;embeddings_model&quot;&lt;/span&gt;&lt;span class=&quot;p&quot; style=&quot;background-color: initial; color: var(--jp-mirror-editor-punctuation-color);&quot;&gt;:&lt;/span&gt;&lt;span style=&quot;background-color: initial;&quot;&gt; &quot;BAAI/bge-m3&quot;&lt;/span&gt;&lt;span class=&quot;p&quot; style=&quot;background-color: initial; color: var(--jp-mirror-editor-punctuation-color);&quot;&gt;,&lt;/span&gt;&lt;span style=&quot;background-color: initial;&quot;&gt;&amp;nbsp;&lt;/span&gt;&lt;/b&gt;&lt;/div&gt;&lt;div&gt;&lt;b&gt;&amp;nbsp; &amp;nbsp;&amp;nbsp;&lt;/b&gt;&lt;b style=&quot;background-color: initial;&quot;&gt;&amp;nbsp; &amp;nbsp;&amp;nbsp;&lt;/b&gt;&lt;b style=&quot;background-color: initial;&quot;&gt;&amp;nbsp; &amp;nbsp;&amp;nbsp;&lt;/b&gt;&lt;b style=&quot;background-color: initial;&quot;&gt;&amp;nbsp; &amp;nbsp;&amp;nbsp;&lt;/b&gt;&lt;b style=&quot;background-color: initial;&quot;&gt;&lt;span class=&quot;s2&quot; style=&quot;background-color: initial; color: var(--jp-mirror-editor-string-color);&quot;&gt;&quot;collections&quot;&lt;/span&gt;&lt;span class=&quot;p&quot; style=&quot;background-color: initial; color: var(--jp-mirror-editor-punctuation-color);&quot;&gt;:&lt;/span&gt;&lt;span style=&quot;background-color: initial;&quot;&gt; &lt;/span&gt;&lt;span class=&quot;p&quot; style=&quot;background-color: initial; color: var(--jp-mirror-editor-punctuation-color);&quot;&gt;[&quot;public-fiches-services-publiques&quot;&lt;/span&gt;&lt;span class=&quot;p&quot; style=&quot;background-color: initial; color: var(--jp-mirror-editor-punctuation-color);&quot;&gt;],&lt;/span&gt;&lt;/b&gt;&lt;/div&gt;&lt;div&gt;&lt;b&gt;&amp;nbsp; &amp;nbsp;&amp;nbsp;&lt;/b&gt;&lt;b style=&quot;background-color: initial;&quot;&gt;&amp;nbsp; &amp;nbsp;&amp;nbsp;&lt;/b&gt;&lt;b style=&quot;background-color: initial;&quot;&gt;&amp;nbsp; &amp;nbsp;&amp;nbsp;&lt;/b&gt;&lt;b style=&quot;background-color: initial;&quot;&gt;&amp;nbsp; &amp;nbsp;&amp;nbsp;&lt;/b&gt;&lt;b style=&quot;background-color: initial;&quot;&gt;&lt;span class=&quot;s2&quot; style=&quot;background-color: initial; color: var(--jp-mirror-editor-string-color);&quot;&gt;&quot;k&quot;&lt;/span&gt;&lt;span class=&quot;p&quot; style=&quot;background-color: initial; color: var(--jp-mirror-editor-punctuation-color);&quot;&gt;:&lt;/span&gt;&lt;span style=&quot;background-color: initial;&quot;&gt; &lt;/span&gt;&lt;span class=&quot;mi&quot; style=&quot;background-color: initial; color: var(--jp-mirror-editor-number-color);&quot;&gt;2&lt;/span&gt;&lt;/b&gt;&lt;/div&gt;&lt;div&gt;&lt;b&gt;&amp;nbsp; &amp;nbsp;&amp;nbsp;&lt;/b&gt;&lt;b style=&quot;background-color: initial;&quot;&gt;&amp;nbsp; &amp;nbsp;&amp;nbsp;&lt;/b&gt;&lt;b style=&quot;background-color: initial;&quot;&gt;&amp;nbsp; &amp;nbsp;&amp;nbsp;&lt;/b&gt;&lt;b style=&quot;background-color: initial;&quot;&gt;&lt;span class=&quot;p&quot; style=&quot;background-color: initial; color: var(--jp-mirror-editor-punctuation-color);&quot;&gt;}&lt;/span&gt;&lt;/b&gt;&lt;/div&gt;&lt;div&gt;&lt;b&gt;&amp;nbsp; &amp;nbsp;&amp;nbsp;&lt;/b&gt;&lt;b style=&quot;background-color: initial;&quot;&gt;&amp;nbsp; &amp;nbsp;&amp;nbsp;&lt;/b&gt;&lt;b style=&quot;background-color: initial;&quot;&gt;&lt;span class=&quot;p&quot; style=&quot;background-color: initial; color: var(--jp-mirror-editor-punctuation-color);&quot;&gt;},&lt;/span&gt;&lt;/b&gt;&lt;/div&gt;&lt;div&gt;&lt;b&gt;&amp;nbsp; &amp;nbsp;&amp;nbsp;&lt;/b&gt;&lt;b style=&quot;background-color: initial;&quot;&gt;&amp;nbsp; &amp;nbsp;&amp;nbsp;&lt;/b&gt;&lt;b style=&quot;background-color: initial;&quot;&gt;&lt;span class=&quot;s2&quot; style=&quot;background-color: initial; color: var(--jp-mirror-editor-string-color);&quot;&gt;&quot;type&quot;&lt;/span&gt;&lt;span class=&quot;p&quot; style=&quot;background-color: initial; color: var(--jp-mirror-editor-punctuation-color);&quot;&gt;:&lt;/span&gt;&lt;span style=&quot;background-color: initial;&quot;&gt; &lt;/span&gt;&lt;span class=&quot;s2&quot; style=&quot;background-color: initial; color: var(--jp-mirror-editor-string-color);&quot;&gt;&quot;function&quot;&lt;/span&gt;&lt;/b&gt;&lt;/div&gt;&lt;div&gt;&lt;b&gt;&lt;span class=&quot;p&quot; style=&quot;background-color: initial; color: var(--jp-mirror-editor-punctuation-color); white-space: normal;&quot;&gt;&lt;br&gt;&lt;/span&gt;&lt;/b&gt;&lt;/div&gt;&lt;div&gt;&lt;b&gt;&lt;span class=&quot;p&quot; style=&quot;background-color: initial; color: var(--jp-mirror-editor-punctuation-color); white-space: normal;&quot;&gt;&lt;br&gt;&lt;/span&gt;&lt;/b&gt;&lt;/div&gt;&lt;div&gt;&lt;b&gt;&lt;span class=&quot;p&quot; style=&quot;background-color: initial; color: var(--jp-mirror-editor-punctuation-color); white-space: normal;&quot;&gt;&lt;br&gt;&lt;/span&gt;&lt;/b&gt;&lt;/div&gt;&lt;div&gt;&lt;b&gt;&lt;span class=&quot;p&quot; style=&quot;background-color: initial; color: var(--jp-mirror-editor-punctuation-color); white-space: normal;&quot;&gt;&lt;br&gt;&lt;/span&gt;&lt;/b&gt;&lt;/div&gt;&lt;div&gt;&lt;b&gt;&lt;span class=&quot;p&quot; style=&quot;background-color: initial; color: var(--jp-mirror-editor-punctuation-color); white-space: normal;&quot;&gt;&lt;br&gt;&lt;/span&gt;&lt;/b&gt;&lt;/div&gt;&lt;div&gt;&lt;b&gt;&lt;span class=&quot;p&quot; style=&quot;background-color: initial; color: var(--jp-mirror-editor-punctuation-color); white-space: normal;&quot;&gt;&amp;nbsp; &amp;nbsp; &quot;model&quot;: &quot;&lt;/span&gt;&lt;/b&gt;&lt;span style=&quot;background-color: initial;&quot;&gt;&lt;b&gt;AgentPublic/llama3-instruct-8b&quot;&lt;/b&gt;&lt;/span&gt;&lt;/div&gt;&lt;div&gt;&lt;b&gt;&lt;span class=&quot;p&quot; style=&quot;background-color: initial; color: var(--jp-mirror-editor-punctuation-color); white-space: normal;&quot;&gt;&lt;br&gt;&lt;/span&gt;&lt;/b&gt;&lt;/div&gt;&lt;div&gt;&lt;b&gt;        &lt;span class=&quot;p&quot; style=&quot;background-color: initial; color: var(--jp-mirror-editor-punctuation-color); white-space: normal;&quot;&gt;}&lt;/span&gt;&lt;br&gt;&lt;/b&gt;&lt;/div&gt;&lt;div&gt;&lt;br&gt;&lt;/div&gt;" style="rounded=1;whiteSpace=wrap;html=1;imageHeight=24;arcSize=2;fillColor=#f5f5f5;fontColor=#333333;strokeColor=#666666;verticalAlign=top;align=left;spacingLeft=10;spacing=0;fontFamily=Source Code Pro;fontStyle=0;fontSource=https%3A%2F%2Ffonts.googleapis.com%2Fcss%3Ffamily%3DSource%2BCode%2BPro;spacingTop=10;" vertex="1" parent="1">
          <mxGeometry x="570" y="30" width="520" height="470" as="geometry" />
        </mxCell>
        <mxCell id="ijq4nxJht9nwM7lDfUeJ-7" value="" style="endArrow=classic;html=1;rounded=0;" edge="1" parent="1" source="ijq4nxJht9nwM7lDfUeJ-2">
          <mxGeometry width="50" height="50" relative="1" as="geometry">
            <mxPoint x="320" y="300" as="sourcePoint" />
            <mxPoint x="480" y="110" as="targetPoint" />
          </mxGeometry>
        </mxCell>
        <mxCell id="ijq4nxJht9nwM7lDfUeJ-14" style="edgeStyle=orthogonalEdgeStyle;rounded=0;orthogonalLoop=1;jettySize=auto;html=1;exitX=1;exitY=0.5;exitDx=0;exitDy=0;dashed=1;entryX=1;entryY=0.5;entryDx=0;entryDy=0;" edge="1" parent="1" target="ijq4nxJht9nwM7lDfUeJ-13">
          <mxGeometry relative="1" as="geometry">
            <mxPoint x="430" y="165" as="sourcePoint" />
            <mxPoint x="340" y="165" as="targetPoint" />
          </mxGeometry>
        </mxCell>
        <mxCell id="ijq4nxJht9nwM7lDfUeJ-8" value="Retrieve&lt;div&gt;chat history&lt;/div&gt;" style="rhombus;whiteSpace=wrap;html=1;dashed=1;" vertex="1" parent="1">
          <mxGeometry x="425" y="110" width="110" height="110" as="geometry" />
        </mxCell>
        <mxCell id="ijq4nxJht9nwM7lDfUeJ-9" value="" style="endArrow=classic;html=1;rounded=0;" edge="1" parent="1">
          <mxGeometry width="50" height="50" relative="1" as="geometry">
            <mxPoint x="479.75" y="220" as="sourcePoint" />
            <mxPoint x="480.25" y="250" as="targetPoint" />
          </mxGeometry>
        </mxCell>
        <mxCell id="ijq4nxJht9nwM7lDfUeJ-11" style="edgeStyle=orthogonalEdgeStyle;rounded=0;orthogonalLoop=1;jettySize=auto;html=1;dashed=1;" edge="1" parent="1" source="ijq4nxJht9nwM7lDfUeJ-10" target="ijq4nxJht9nwM7lDfUeJ-12">
          <mxGeometry relative="1" as="geometry">
            <mxPoint x="660" y="355" as="targetPoint" />
          </mxGeometry>
        </mxCell>
        <mxCell id="ijq4nxJht9nwM7lDfUeJ-15" style="edgeStyle=orthogonalEdgeStyle;rounded=0;orthogonalLoop=1;jettySize=auto;html=1;entryX=0.5;entryY=0;entryDx=0;entryDy=0;" edge="1" parent="1" source="ijq4nxJht9nwM7lDfUeJ-10" target="ijq4nxJht9nwM7lDfUeJ-17">
          <mxGeometry relative="1" as="geometry">
            <mxPoint x="480" y="380" as="targetPoint" />
          </mxGeometry>
        </mxCell>
        <mxCell id="ijq4nxJht9nwM7lDfUeJ-10" value="Tools" style="rhombus;whiteSpace=wrap;html=1;dashed=1;" vertex="1" parent="1">
          <mxGeometry x="425" y="250" width="110" height="110" as="geometry" />
        </mxCell>
        <mxCell id="ijq4nxJht9nwM7lDfUeJ-12" value="Models and vectordatabases" style="ellipse;whiteSpace=wrap;html=1;aspect=fixed;fillColor=#dae8fc;strokeColor=#6c8ebf;" vertex="1" parent="1">
          <mxGeometry x="210" y="242.5" width="125" height="125" as="geometry" />
        </mxCell>
        <mxCell id="ijq4nxJht9nwM7lDfUeJ-13" value="Chat history&lt;div&gt;database&lt;/div&gt;" style="ellipse;whiteSpace=wrap;html=1;aspect=fixed;fillColor=#dae8fc;strokeColor=#6c8ebf;" vertex="1" parent="1">
          <mxGeometry x="210" y="102.5" width="125" height="125" as="geometry" />
        </mxCell>
        <mxCell id="ijq4nxJht9nwM7lDfUeJ-16" value="Response" style="text;html=1;align=center;verticalAlign=middle;whiteSpace=wrap;rounded=0;fontStyle=1;fontSize=25;" vertex="1" parent="1">
          <mxGeometry x="400" y="565" width="160" height="20" as="geometry" />
        </mxCell>
        <mxCell id="ijq4nxJht9nwM7lDfUeJ-25" style="edgeStyle=orthogonalEdgeStyle;rounded=0;orthogonalLoop=1;jettySize=auto;html=1;entryX=1;entryY=0.5;entryDx=0;entryDy=0;dashed=1;" edge="1" parent="1" source="ijq4nxJht9nwM7lDfUeJ-17" target="ijq4nxJht9nwM7lDfUeJ-24">
          <mxGeometry relative="1" as="geometry">
            <mxPoint x="340" y="445" as="targetPoint" />
          </mxGeometry>
        </mxCell>
        <mxCell id="ijq4nxJht9nwM7lDfUeJ-17" value="Model&lt;div&gt;generation&lt;/div&gt;" style="rhombus;whiteSpace=wrap;html=1;dashed=1;" vertex="1" parent="1">
          <mxGeometry x="425" y="390" width="110" height="110" as="geometry" />
        </mxCell>
        <mxCell id="ijq4nxJht9nwM7lDfUeJ-21" style="edgeStyle=orthogonalEdgeStyle;rounded=0;orthogonalLoop=1;jettySize=auto;html=1;" edge="1" parent="1">
          <mxGeometry relative="1" as="geometry">
            <mxPoint x="480" y="550" as="targetPoint" />
            <mxPoint x="480" y="500" as="sourcePoint" />
          </mxGeometry>
        </mxCell>
        <mxCell id="ijq4nxJht9nwM7lDfUeJ-28" style="edgeStyle=orthogonalEdgeStyle;rounded=0;orthogonalLoop=1;jettySize=auto;html=1;entryX=0.5;entryY=0;entryDx=0;entryDy=0;" edge="1" parent="1" target="ijq4nxJht9nwM7lDfUeJ-2">
          <mxGeometry relative="1" as="geometry">
            <mxPoint x="480" y="-10" as="sourcePoint" />
          </mxGeometry>
        </mxCell>
        <mxCell id="ijq4nxJht9nwM7lDfUeJ-23" value="/v1/chat/completion&lt;div&gt;request&lt;/div&gt;" style="text;html=1;align=center;verticalAlign=middle;whiteSpace=wrap;rounded=0;fontStyle=1;fontSize=25;" vertex="1" parent="1">
          <mxGeometry x="400" y="-50" width="160" height="20" as="geometry" />
        </mxCell>
        <mxCell id="ijq4nxJht9nwM7lDfUeJ-24" value="Model" style="ellipse;whiteSpace=wrap;html=1;aspect=fixed;fillColor=#dae8fc;strokeColor=#6c8ebf;" vertex="1" parent="1">
          <mxGeometry x="210" y="382.5" width="125" height="125" as="geometry" />
        </mxCell>
        <mxCell id="ijq4nxJht9nwM7lDfUeJ-27" value="&lt;span style=&quot;font-weight: normal;&quot;&gt;&lt;font style=&quot;font-size: 16px;&quot;&gt;Request parameters example&lt;/font&gt;&lt;/span&gt;" style="text;html=1;align=center;verticalAlign=middle;whiteSpace=wrap;rounded=0;fontStyle=1;fontSize=18;" vertex="1" parent="1">
          <mxGeometry x="630" y="10" width="400" height="20" as="geometry" />
        </mxCell>
      </root>
    </mxGraphModel>
  </diagram>
</mxfile>
